<mxfile host="app.diagrams.net" modified="2023-05-24T01:49:55.177Z" agent="Mozilla/5.0 (Windows NT 10.0; Win64; x64) AppleWebKit/537.36 (KHTML, like Gecko) Chrome/113.0.0.0 Safari/537.36" etag="dXL-rWBo9z02cFDmaR0O" version="21.3.3" type="github">
  <diagram id="R2lEEEUBdFMjLlhIrx00" name="Page-1">
    <mxGraphModel dx="1434" dy="764" grid="1" gridSize="10" guides="1" tooltips="1" connect="1" arrows="1" fold="1" page="1" pageScale="1" pageWidth="850" pageHeight="1100" math="0" shadow="0" extFonts="Permanent Marker^https://fonts.googleapis.com/css?family=Permanent+Marker">
      <root>
        <mxCell id="0" />
        <mxCell id="1" parent="0" />
        <mxCell id="7BueyS9tqezXI4xggQ0X-1" value="资源图层" style="shape=ext;double=1;rounded=1;whiteSpace=wrap;html=1;" vertex="1" parent="1">
          <mxGeometry x="430" y="650" width="130" height="70" as="geometry" />
        </mxCell>
        <mxCell id="7BueyS9tqezXI4xggQ0X-2" value="专题" style="shape=ext;double=1;rounded=1;whiteSpace=wrap;html=1;" vertex="1" parent="1">
          <mxGeometry x="430" y="290" width="130" height="80" as="geometry" />
        </mxCell>
        <mxCell id="7BueyS9tqezXI4xggQ0X-3" value="项目" style="shape=ext;double=1;rounded=1;whiteSpace=wrap;html=1;" vertex="1" parent="1">
          <mxGeometry x="120" y="430" width="120" height="70" as="geometry" />
        </mxCell>
        <mxCell id="7BueyS9tqezXI4xggQ0X-4" value="专题组件" style="shape=ext;double=1;rounded=1;whiteSpace=wrap;html=1;" vertex="1" parent="1">
          <mxGeometry x="630" y="160" width="130" height="80" as="geometry" />
        </mxCell>
        <mxCell id="7BueyS9tqezXI4xggQ0X-5" value="专题底图选项" style="shape=ext;double=1;rounded=1;whiteSpace=wrap;html=1;" vertex="1" parent="1">
          <mxGeometry x="630" y="290" width="130" height="80" as="geometry" />
        </mxCell>
        <mxCell id="7BueyS9tqezXI4xggQ0X-6" value="专题地图设置" style="shape=ext;double=1;rounded=1;whiteSpace=wrap;html=1;" vertex="1" parent="1">
          <mxGeometry x="630" y="420" width="130" height="80" as="geometry" />
        </mxCell>
        <mxCell id="7BueyS9tqezXI4xggQ0X-7" value="服务" style="shape=ext;double=1;rounded=1;whiteSpace=wrap;html=1;" vertex="1" parent="1">
          <mxGeometry x="640" y="590" width="130" height="70" as="geometry" />
        </mxCell>
        <mxCell id="7BueyS9tqezXI4xggQ0X-8" value="样式" style="shape=ext;double=1;rounded=1;whiteSpace=wrap;html=1;" vertex="1" parent="1">
          <mxGeometry x="640" y="710" width="130" height="70" as="geometry" />
        </mxCell>
        <mxCell id="7BueyS9tqezXI4xggQ0X-9" value="第三方业务-图层关系" style="shape=ext;double=1;rounded=1;whiteSpace=wrap;html=1;" vertex="1" parent="1">
          <mxGeometry x="430" y="860" width="130" height="70" as="geometry" />
        </mxCell>
        <mxCell id="7BueyS9tqezXI4xggQ0X-10" value="第三方业务-底图关系" style="shape=ext;double=1;rounded=1;whiteSpace=wrap;html=1;" vertex="1" parent="1">
          <mxGeometry x="640" y="860" width="130" height="70" as="geometry" />
        </mxCell>
      </root>
    </mxGraphModel>
  </diagram>
</mxfile>
